<svg width="24" height="24" viewBox="0 0 24 24" fill="none" xmlns="http://www.w3.org/2000/svg">
  <!-- Record icon: microphone with record dot -->
  <path d="M12 1c-1.66 0-3 1.34-3 3v5c0 1.66 1.34 3 3 3s3-1.34 3-3V4c0-1.66-1.34-3-3-3zm0 12c-2.76 0-5-2.24-5-5V6h1v2c0 2.21 1.79 4 4 4s4-1.79 4-4V6h1v2c0 2.76-2.24 5-5 5z" fill="#4F46E5"/>
  <path d="M11 15v4h2v-4h-2z" fill="#4F46E5"/>
  <path d="M8 19h8v2H8v-2z" fill="#4F46E5"/>
  <!-- Record dot -->
  <circle cx="18" cy="6" r="3" fill="#EF4444"/>
</svg>
